<svg width="95" height="41" viewBox="0 0 95 41" fill="none" xmlns="http://www.w3.org/2000/svg">
<path d="M34.8221 34.1788L34.4062 33.019L27.4505 13.5319L22.9944 1.05261H14.1536L0.5 39.947H8.08666L11.2798 30.394H25.9834L27.445 34.6815L29.249 39.947H36.8861L34.8221 34.1788ZM13.166 24.7605L14.8591 19.6965C15.5051 17.6442 16.1854 15.3166 16.9001 12.7138C17.4012 10.8886 17.9451 8.87456 18.5317 6.67184C19.1323 8.85777 19.6912 10.8542 20.2084 12.6612C20.9494 15.2458 21.6601 17.5909 22.3404 19.6965L24.0665 24.7605H13.166Z" fill="white"/>
<path d="M56.3926 24.3115C55.7432 23.1573 54.8471 22.1601 53.7679 21.3907C53.6172 21.2841 53.4636 21.183 53.307 21.0873C52.0963 20.3311 50.7162 19.887 49.2909 19.7951V19.4819C50.533 19.1908 51.7087 18.668 52.7562 17.941C53.2283 17.614 53.6616 17.2345 54.0477 16.8097C54.4926 16.3194 54.8735 15.7748 55.1812 15.1889C55.7437 14.1214 56.0389 12.8533 56.0667 11.3843C56.0667 11.3076 56.0667 11.231 56.0667 11.1554C56.0667 9.20603 55.596 7.46985 54.6545 5.94685C54.3002 5.37497 53.8796 4.84675 53.4014 4.37312C52.5341 3.53472 51.5276 2.85291 50.4266 2.35804C48.5517 1.48703 46.2196 1.05188 43.4303 1.05261H28.4721V13.5374L35.43 33.0245V22.7301H43.404C44.7207 22.7301 45.8769 22.9455 46.8725 23.3762C46.9822 23.4233 47.092 23.4726 47.2017 23.5263C48.2646 24.0578 49.0843 24.7802 49.6607 25.6936C50.2425 26.6289 50.542 27.7118 50.5232 28.8126C50.5232 30.0435 50.1754 31.0945 49.4797 31.9655C49.2639 32.2336 49.0224 32.4801 48.7587 32.7014C47.581 33.6936 45.728 34.1898 43.1999 34.1898H35.8481L37.9077 39.9579H44.2215C47.2032 39.9579 49.6838 39.4969 51.6633 38.5747C52.5015 38.1909 53.2906 37.7081 54.0137 37.1368C54.8447 36.478 55.554 35.6793 56.1095 34.7768C56.7519 33.7227 57.1907 32.5578 57.4032 31.3424C57.5247 30.6599 57.585 29.9679 57.5831 29.2747C57.5831 27.3407 57.1863 25.6863 56.3926 24.3115ZM48.2979 15.0027C47.9576 15.5076 47.5317 15.9493 47.0393 16.3081C46.7136 16.5473 46.3643 16.7528 45.9969 16.9214C45.0203 17.3748 43.9128 17.6011 42.6743 17.6004H35.4322V6.7956H42.784C44.8594 6.7956 46.4376 7.28732 47.5188 8.27077C48.1242 8.80911 48.5829 9.49186 48.852 10.2552C49.0484 10.8304 49.1456 11.4348 49.1395 12.0425C49.1359 13.1917 48.8553 14.1791 48.2979 15.0049V15.0027Z" fill="#E64C45"/>
<path d="M75.075 26.9223C74.8714 28.026 74.4676 29.0834 73.8834 30.0424C73.3357 30.935 72.6265 31.7182 71.792 32.3521C70.9531 32.9844 70.0103 33.4661 69.0059 33.7758C67.9299 34.1047 66.8098 34.2676 65.6844 34.2587C63.5052 34.2587 61.5872 33.7279 59.9303 32.6664C59.3385 32.2864 58.7905 31.8424 58.2964 31.3423C58.0821 32.5555 57.6418 33.7178 56.9983 34.7691C56.4428 35.6716 55.7335 36.4703 54.9025 37.1291C55.3711 37.4771 55.8575 37.8006 56.3597 38.0983C59.0707 39.6994 62.1431 40.5 65.5769 40.5C67.86 40.5 69.9522 40.1558 71.8534 39.4673C73.6826 38.8218 75.3764 37.8442 76.8494 36.5837C79.724 34.1125 81.5938 30.6774 82.1065 26.9256L75.075 26.9223ZM80.2016 8.37478C79.2911 6.7317 78.069 5.28106 76.6036 4.10369C75.117 2.9209 73.4297 2.01431 71.6219 1.42713C69.6708 0.796823 67.6308 0.483988 65.5802 0.500631C62.1618 0.500631 59.0971 1.30119 56.386 2.9023C55.6508 3.33553 54.9511 3.82623 54.2935 4.36981C54.7717 4.84344 55.1923 5.37166 55.5466 5.94354C56.4881 7.46654 56.9588 9.20272 56.9588 11.1521C56.9588 11.2277 56.9588 11.3043 56.9588 11.381C57.7217 10.1798 58.7316 9.15399 59.9215 8.3715C61.5857 7.28437 63.5078 6.74044 65.6877 6.73971C66.8173 6.73214 67.9416 6.89497 69.0224 7.22268C70.0345 7.53222 70.9832 8.01954 71.8238 8.66171C72.6489 9.29678 73.3475 10.0806 73.8834 10.9725C74.4532 11.9309 74.8474 12.983 75.0476 14.0794H82.0834C81.7696 11.9556 81.1423 10.054 80.2016 8.37478Z" fill="white"/>
<path d="M70.7989 20.9383V21.3479C70.1909 22.036 69.5404 22.6856 68.8512 23.2929C68.3264 23.7583 67.7437 24.1544 67.1175 24.4713C66.6109 24.7315 66.0511 24.8716 65.4815 24.8809C65.0741 24.8921 64.6706 24.799 64.3096 24.6104C63.9852 24.4317 63.7264 24.1543 63.5711 23.8186C63.3961 23.4319 63.311 23.0107 63.322 22.5865C63.3259 22.184 63.3865 21.784 63.5019 21.3983C63.6303 20.9589 63.8046 20.5342 64.0221 20.1312C64.2708 19.6746 64.5505 19.2355 64.8593 18.817C65.1892 18.3622 65.5777 17.885 66.0246 17.3856C66.4484 16.9067 66.9064 16.459 67.3951 16.0463C67.7791 15.7184 68.189 15.4221 68.6208 15.1603C68.9434 14.9666 69.285 14.8062 69.6402 14.6817C69.8904 14.5888 70.1536 14.5356 70.4203 14.524C70.6105 14.5181 70.7979 14.5709 70.9569 14.6751C71.1113 14.7846 71.23 14.9369 71.2982 15.1132C71.3817 15.3259 71.4223 15.5529 71.4178 15.7812C71.4178 16.2565 71.2557 16.7851 70.9317 17.367C70.5927 17.9715 70.1879 18.5367 69.7247 19.0525C69.3032 19.5351 68.8394 19.9794 68.3388 20.3798C67.8999 20.7229 67.5828 20.8941 67.3874 20.8934C67.2512 20.8908 67.1214 20.8355 67.0253 20.739C66.9738 20.6961 66.9321 20.6425 66.9031 20.582C66.8741 20.5216 66.8586 20.4556 66.8575 20.3885C66.8575 20.1498 66.9847 19.86 67.2393 19.519C67.4897 19.1835 67.7687 18.8702 68.0732 18.5826C68.3739 18.2994 68.5539 18.1577 68.6131 18.1577C68.6427 18.1577 68.657 18.1698 68.657 18.195C68.6476 18.2638 68.6252 18.3303 68.5912 18.391C68.5613 18.4442 68.5392 18.5013 68.5253 18.5607C68.5253 18.5947 68.5374 18.6111 68.5626 18.6111C68.6358 18.6111 68.8421 18.4202 69.1815 18.0384C69.5284 17.6456 69.8405 17.2234 70.1142 16.7767C70.3988 16.3153 70.5407 15.9378 70.5399 15.6443C70.5462 15.5448 70.5188 15.4461 70.462 15.364C70.4327 15.3307 70.396 15.3046 70.3549 15.2877C70.3138 15.2708 70.2694 15.2635 70.225 15.2665C69.9324 15.2665 69.4847 15.5049 68.8819 15.9817C68.2107 16.5291 67.5934 17.1393 67.0385 17.804C66.4319 18.5054 65.9025 19.2698 65.4595 20.0841C65.0381 20.8704 64.8275 21.5618 64.8275 22.1583C64.8183 22.4536 64.871 22.7475 64.9822 23.0213C65.0764 23.2419 65.2351 23.4289 65.4376 23.5579C65.6555 23.6887 65.9065 23.7541 66.1607 23.7463C66.7708 23.7463 67.4632 23.509 68.2378 23.0344C69.0125 22.5599 69.8662 21.8612 70.7989 20.9383Z" fill="white"/>
<path d="M73.7616 20.9603V21.4203C73.4333 21.8638 73.049 22.2632 72.6182 22.6085C72.2649 22.8757 71.9598 23.0093 71.7151 23.0093C71.3699 23.0093 71.1138 22.8286 70.947 22.4672C70.7763 22.0957 70.6901 21.691 70.6947 21.2823C70.6938 21.1243 70.7107 20.9667 70.7451 20.8124C70.7713 20.6854 70.8114 20.5616 70.8647 20.4434C70.9108 20.347 70.9971 20.1959 71.1237 19.99C71.7214 19.0613 72.27 18.597 72.7696 18.597C73.0264 18.597 73.1559 18.6955 73.1559 18.8926C73.1559 19.027 73.0725 19.2373 72.9057 19.5235C72.7862 19.7467 72.6363 19.9524 72.4602 20.1345C72.2092 20.3685 71.97 20.6149 71.7437 20.8727C71.634 21.0055 71.575 21.1726 71.5769 21.3447C71.5754 21.4165 71.5898 21.4877 71.6193 21.5532C71.6487 21.6188 71.6923 21.6769 71.747 21.7236C71.8692 21.8269 72.0258 21.8808 72.1859 21.8747C72.4214 21.8639 72.6493 21.7881 72.8442 21.6557C73.1662 21.4459 73.4727 21.2136 73.7616 20.9603ZM73.3314 18.1425C73.2203 18.1405 73.1138 18.098 73.0319 18.0231C72.9868 17.9868 72.9506 17.9407 72.9261 17.8883C72.9016 17.8359 72.8893 17.7786 72.8903 17.7208C72.908 17.4915 73.0009 17.2744 73.1548 17.1032C73.3318 16.8761 73.5147 16.7626 73.7034 16.7626C73.8199 16.7587 73.9333 16.8004 74.0194 16.8787C74.0632 16.9227 74.0971 16.9756 74.1189 17.0338C74.1406 17.0919 74.1497 17.154 74.1456 17.216C74.1284 17.4388 74.0373 17.6496 73.8867 17.815C73.7155 18.034 73.5301 18.1425 73.3314 18.1425Z" fill="white"/>
<path d="M77.9609 19.8191C77.2199 20.6434 76.8493 21.2172 76.8493 21.5407C76.8493 21.7214 76.9229 21.8112 77.0688 21.8112C77.2422 21.7921 77.4069 21.7258 77.545 21.6195C77.7418 21.491 78.0483 21.2629 78.4646 20.935V21.3731C77.8662 21.9623 77.4071 22.3869 77.0875 22.6468C76.767 22.9074 76.507 23.0377 76.304 23.0377C75.9594 23.0377 75.7861 22.8111 75.7861 22.3566C75.7865 22.2219 75.808 22.0882 75.8497 21.9601C75.8959 21.8197 75.9539 21.6834 76.0231 21.5527C76.0962 21.4125 76.2089 21.211 76.361 20.9482C76.5132 20.6854 76.688 20.3878 76.8856 20.0556C76.5508 20.2521 76.2465 20.4964 75.9825 20.7806C75.7694 20.9836 75.569 21.1994 75.3823 21.4268C75.2177 21.6305 75.0421 21.8583 74.8545 22.108C74.7286 22.2844 74.5915 22.4527 74.4441 22.6117C74.4114 22.6498 74.3713 22.6809 74.3262 22.7031C74.2811 22.7254 74.232 22.7382 74.1818 22.741C74.048 22.741 73.9229 22.6008 73.8099 22.3193C73.6897 22.0049 73.6316 21.6702 73.6387 21.3337C73.6306 21.1478 73.6574 20.9621 73.7177 20.7861C73.8055 20.5923 73.9101 20.4065 74.0304 20.2309C74.2474 19.8781 74.4992 19.548 74.7821 19.2452C74.9927 19.0371 75.195 18.9331 75.3889 18.9331C75.5028 18.9276 75.6162 18.9518 75.718 19.0032C75.7578 19.0237 75.7906 19.0554 75.8124 19.0943C75.8343 19.1332 75.8442 19.1777 75.8409 19.2222C75.84 19.2689 75.8272 19.3145 75.8036 19.3547C75.7797 19.3997 75.751 19.4419 75.718 19.4807C75.6862 19.519 75.6204 19.5902 75.5194 19.6997C74.8545 20.4349 74.522 20.9117 74.522 21.13C74.522 21.2526 74.5615 21.3129 74.6416 21.3129C74.6921 21.3129 74.7897 21.2318 74.9346 21.0709C75.0794 20.9099 75.2638 20.6963 75.4975 20.4335C75.7533 20.1444 76.0251 19.8698 76.3117 19.611C76.6469 19.3087 77.0049 19.0326 77.3826 18.7853C77.6021 18.6298 77.7872 18.552 77.9378 18.552C78.0059 18.552 78.0717 18.6451 78.1376 18.8302C78.2018 19.0102 78.2348 19.1998 78.2352 19.3909C78.233 19.4894 78.142 19.6307 77.9609 19.8191Z" fill="white"/>
<path d="M79.4389 21.187V21.3447C79.4264 21.5541 79.4916 21.7607 79.6222 21.9251C79.6818 21.9932 79.7558 22.0473 79.839 22.0832C79.9221 22.1192 80.0122 22.1363 80.1028 22.1332C80.3243 22.1299 80.5426 22.0803 80.7436 21.9875C80.9765 21.8839 81.1973 21.755 81.402 21.6031C81.6215 21.4432 81.8888 21.229 82.2041 20.9603V21.3447C81.8126 21.835 81.3631 22.2763 80.8654 22.6589C80.5033 22.945 80.0576 23.1057 79.5959 23.1166C79.4229 23.1219 79.2513 23.0847 79.0962 23.0083C78.941 22.932 78.807 22.8187 78.706 22.6786C78.4865 22.3865 78.3768 21.9894 78.3768 21.487C78.3708 21.0652 78.4776 20.6493 78.6862 20.2824C78.957 19.8494 79.2986 19.4648 79.6968 19.1445C79.9832 18.8938 80.3043 18.6858 80.6503 18.5268C80.9155 18.4005 81.2038 18.3297 81.4975 18.3188C81.6649 18.31 81.8303 18.3579 81.9671 18.4546C82.0265 18.5035 82.0733 18.566 82.1036 18.6366C82.134 18.7073 82.147 18.7842 82.1416 18.8609C82.1326 19.1503 82.028 19.4286 81.8442 19.6527C81.5904 19.9641 81.2836 20.2284 80.9378 20.4335C80.4622 20.7297 79.9605 20.9819 79.4389 21.187ZM79.5026 20.7774C79.8531 20.6462 80.1811 20.4615 80.4748 20.2298C80.7052 20.0528 80.9065 19.8411 81.0717 19.6023C81.2001 19.403 81.2648 19.2562 81.2648 19.1642C81.2648 19.0722 81.2198 19.0186 81.1321 19.0186C80.9996 19.0395 80.8733 19.0892 80.7623 19.1642C80.5767 19.2715 80.4031 19.3982 80.2444 19.5421C80.0645 19.7036 79.9063 19.8876 79.7736 20.0896C79.6367 20.2976 79.5451 20.5319 79.5048 20.7774H79.5026Z" fill="white"/>
<path d="M85.0922 21.8244C85.6723 21.3133 86.1712 20.8669 86.5889 20.485L87.5764 19.5859C87.8135 19.3669 88.0227 19.1822 88.2041 19.0318C88.3851 18.8806 88.5015 18.8051 88.5519 18.8051C88.6485 18.8051 88.7418 18.9003 88.8295 19.104C88.9051 19.2567 88.9502 19.4226 88.9623 19.5925C88.9623 19.6728 88.8288 19.8608 88.5618 20.1565C88.2948 20.4522 88.0947 20.6887 87.9616 20.8661C87.8356 21.0238 87.7658 21.2187 87.763 21.4203C87.7604 21.4713 87.7689 21.5222 87.7879 21.5696C87.8068 21.6171 87.8357 21.6599 87.8727 21.6952C87.9457 21.7656 88.0433 21.8049 88.1448 21.8047C88.3072 21.7881 88.4605 21.7219 88.5838 21.6152C88.7542 21.4889 89.0223 21.264 89.3881 20.9406V21.3885C89.0227 21.7335 88.6891 22.0303 88.3906 22.28C88.1481 22.4904 87.887 22.6784 87.6105 22.8418C87.4455 22.9475 87.2571 23.011 87.0618 23.0269C86.9994 23.0278 86.9376 23.015 86.8807 22.9895C86.8239 22.964 86.7733 22.9262 86.7326 22.879C86.6435 22.7771 86.5965 22.6452 86.601 22.51C86.6011 22.3607 86.6267 22.2126 86.6767 22.0719C86.7417 21.8925 86.8195 21.7179 86.9093 21.5495C87.019 21.3469 87.154 21.1049 87.3263 20.8212C87.4985 20.5376 87.6554 20.2737 87.8003 20.0426C87.3716 20.3908 86.9905 20.7271 86.6569 21.0512C86.3233 21.3754 86.0519 21.6579 85.8427 21.8989C85.632 22.1409 85.4653 22.3304 85.3435 22.4694C85.1075 22.7301 84.8892 22.8604 84.6851 22.8604C84.481 22.8604 84.3559 22.7049 84.3559 22.3939C84.3559 22.2679 84.4382 22.0412 84.6028 21.716C84.7674 21.3907 85 20.9757 85.304 20.4708C85.3328 20.4235 85.3458 20.3683 85.3413 20.3131C85.3441 20.2959 85.3428 20.2783 85.3375 20.2617C85.3322 20.2451 85.3229 20.2301 85.3106 20.2177C85.2983 20.2054 85.2832 20.1962 85.2665 20.1909C85.2499 20.1856 85.2323 20.1843 85.2151 20.1871C85.1229 20.1871 84.989 20.2744 84.8135 20.4489C84.6379 20.6234 84.3003 20.9884 83.8007 21.544C83.632 21.7373 83.4748 21.9402 83.3299 22.1519C83.2134 22.3255 83.0878 22.493 82.9536 22.6534C82.9269 22.6893 82.8928 22.7192 82.8536 22.7409C82.8144 22.7626 82.7711 22.7757 82.7264 22.7794C82.575 22.7794 82.4334 22.6447 82.304 22.3753C82.1677 22.0814 82.1005 21.7604 82.1075 21.4367C82.1016 21.2052 82.1458 20.9751 82.237 20.7621C82.3546 20.5178 82.4888 20.2818 82.6386 20.0557C82.8429 19.744 83.0742 19.4509 83.3299 19.1796C83.402 19.1008 83.4891 19.037 83.5861 18.9921C83.6832 18.9471 83.7882 18.9219 83.895 18.9179C84.0029 18.9143 84.1098 18.9396 84.2045 18.9912C84.2421 19.0084 84.2741 19.0357 84.2968 19.0702C84.3195 19.1047 84.332 19.1449 84.3329 19.1862C84.3329 19.2738 84.256 19.4194 84.1024 19.6242C83.9267 19.8491 83.7313 20.058 83.5187 20.2485C83.3811 20.3837 83.2603 20.5348 83.1588 20.6986C83.0712 20.8121 83.0124 20.9451 82.9876 21.0863C82.9876 21.1958 83.0315 21.2571 83.1203 21.2571C83.1917 21.2571 83.3727 21.1093 83.6635 20.819C83.9543 20.5288 84.2736 20.2047 84.6203 19.8575C84.9242 19.55 85.2471 19.2618 85.5871 18.9945C85.8833 18.7645 86.1357 18.6506 86.3409 18.6506C86.4003 18.6491 86.4593 18.661 86.5135 18.6855C86.5676 18.71 86.6156 18.7463 86.6536 18.7919C86.7371 18.8894 86.7812 19.0142 86.7776 19.1424C86.7776 19.2344 86.714 19.4019 86.5878 19.6429C86.4221 19.9516 86.239 20.2507 86.0391 20.5387C85.7912 20.8913 85.4755 21.3199 85.0922 21.8244Z" fill="white"/>
<path d="M90.0815 19.8323C90.6354 19.3113 91.2642 18.8757 91.9469 18.54C92.5483 18.2582 93.0135 18.1173 93.3427 18.1173C93.3889 18.1184 93.4344 18.1287 93.4766 18.1475C93.5188 18.1663 93.5568 18.1932 93.5885 18.2268C93.664 18.2998 93.725 18.3864 93.7684 18.482C93.8043 18.5501 93.8266 18.6245 93.8343 18.701C93.8366 18.7342 93.8297 18.7673 93.8141 18.7967C93.7986 18.8261 93.7752 18.8507 93.7465 18.8675C93.6477 18.9204 93.5441 18.9637 93.4371 18.9967C93.4667 19.0646 93.504 19.1511 93.5468 19.2552C93.5896 19.3592 93.6291 19.4457 93.6565 19.5114C93.6798 19.5663 93.6928 19.6249 93.6949 19.6845C93.6949 19.7852 93.5929 19.9732 93.3888 20.2485C93.1847 20.5234 93.0409 20.7271 92.9586 20.8563C92.8731 21.0014 92.8305 21.1677 92.8357 21.336C92.8357 21.647 92.9788 21.8025 93.2648 21.8025C93.5508 21.8025 94.012 21.5272 94.6485 20.9768V21.3612C93.5826 22.5395 92.82 23.1287 92.3606 23.1287C92.2932 23.1349 92.2254 23.1233 92.164 23.0951C92.1025 23.0668 92.0496 23.0229 92.0106 22.9677C91.9299 22.8228 91.8919 22.658 91.9008 22.4924C91.9008 22.1603 92.0208 21.6791 92.2608 21.049C91.6463 21.7295 91.1894 22.2136 90.8902 22.5012C90.5918 22.7892 90.3416 22.9393 90.1518 22.9393C90.0585 22.9393 89.9433 22.8593 89.8039 22.6994C89.6488 22.5131 89.524 22.3035 89.4341 22.0785C89.3283 21.8282 89.2739 21.5594 89.2739 21.2878C89.2703 21.121 89.2891 20.9545 89.3299 20.7928C89.376 20.6444 89.4505 20.5064 89.5494 20.3865C89.7137 20.1897 89.8915 20.0045 90.0815 19.8323ZM93.1068 19.1391C92.0095 19.6385 91.2293 20.0627 90.7663 20.4117C90.3032 20.7606 90.0706 21.1202 90.0684 21.4904C90.0643 21.6039 90.0881 21.7166 90.1375 21.8189C90.1533 21.8564 90.1797 21.8885 90.2133 21.9115C90.247 21.9344 90.2866 21.9471 90.3273 21.9482C90.4145 21.9345 90.4983 21.9044 90.5742 21.8594C91.0283 21.5866 91.4357 21.2431 91.7812 20.8421C92.1507 20.4252 92.594 19.8575 93.1112 19.1391H93.1068Z" fill="white"/>
</svg>
