<svg width="10" height="11" viewBox="0 0 10 11" fill="none" xmlns="http://www.w3.org/2000/svg">
<path fill-rule="evenodd" clip-rule="evenodd" d="M5 0.5C4.85823 0.5 4.71942 0.542246 4.59995 0.621752C4.482 0.700242 4.38777 0.81181 4.32806 0.943572L3.19379 3.32877C3.19157 3.33346 3.18943 3.33819 3.18739 3.34298C3.18689 3.34416 3.18609 3.3452 3.18508 3.34596C3.18407 3.34673 3.18289 3.34721 3.18165 3.34736C3.1773 3.34785 3.17295 3.34844 3.16862 3.34911L0.671136 3.7345C0.533098 3.74848 0.401464 3.80244 0.29121 3.8904C0.17713 3.98142 0.0908345 4.10494 0.0427791 4.246C-0.00527627 4.38707 -0.0130305 4.53962 0.020456 4.68518C0.0538129 4.83017 0.126667 4.96204 0.23024 5.06492L2.05841 6.90219L2.06257 6.90631C2.06518 6.90886 2.06715 6.91203 2.06828 6.91557C2.0694 6.9191 2.06967 6.92287 2.06904 6.92653L2.06864 6.92896L1.633 9.58453C1.60906 9.72846 1.62422 9.87715 1.67695 10.0124C1.72976 10.148 1.81804 10.2654 1.93173 10.3513C2.04543 10.4371 2.17998 10.488 2.32008 10.4981C2.45989 10.5082 2.59963 10.4773 2.72344 10.409L2.72419 10.4086L4.9744 9.16987C4.98247 9.16622 4.99119 9.16428 5.00002 9.16428C5.00884 9.16428 5.01756 9.16622 5.02563 9.16987L7.2758 10.4086C7.39969 10.4771 7.54001 10.5083 7.67991 10.4981C7.82002 10.488 7.95455 10.4371 8.06829 10.3513C8.18197 10.2654 8.27027 10.148 8.32307 10.0124C8.3758 9.87715 8.39102 9.7292 8.36716 9.58535L8.36701 9.58453L7.9314 6.92896L7.93097 6.92653C7.93033 6.92287 7.93061 6.9191 7.93176 6.91557C7.93283 6.91204 7.93483 6.90886 7.9374 6.90631L7.94162 6.90219L9.7698 5.0649C9.87333 4.96201 9.94621 4.83016 9.97957 4.68518C10.013 4.53962 10.0053 4.38707 9.95721 4.246C9.9092 4.10494 9.82289 3.98142 9.70879 3.8904C9.59855 3.80244 9.46694 3.74848 9.3289 3.7345L6.83139 3.34911C6.82706 3.34844 6.82271 3.34785 6.81836 3.34736C6.81712 3.34721 6.81594 3.34673 6.81493 3.34596C6.81392 3.3452 6.81313 3.34416 6.81262 3.34298C6.81058 3.33819 6.80845 3.33346 6.80622 3.32877L5.67195 0.943562C5.61223 0.811804 5.518 0.70024 5.40006 0.621752C5.28059 0.542246 5.14177 0.5 5 0.5Z" fill="#FFC014"/>
</svg>
