<svg width="2058" height="1451" viewBox="0 0 2058 1451" fill="none" xmlns="http://www.w3.org/2000/svg">
<path d="M984.773 747.647C984.705 747.071 984.428 746.624 983.943 746.306C983.458 745.988 982.864 745.829 982.159 745.829C981.644 745.829 981.193 745.912 980.807 746.079C980.424 746.245 980.125 746.475 979.909 746.766C979.697 747.058 979.591 747.389 979.591 747.761C979.591 748.071 979.665 748.338 979.812 748.562C979.964 748.781 980.157 748.965 980.392 749.113C980.627 749.257 980.873 749.376 981.131 749.471C981.388 749.562 981.625 749.636 981.841 749.692L983.023 750.011C983.326 750.09 983.663 750.2 984.034 750.34C984.409 750.48 984.767 750.672 985.108 750.914C985.453 751.153 985.737 751.459 985.96 751.834C986.184 752.209 986.295 752.67 986.295 753.215C986.295 753.844 986.131 754.412 985.801 754.92C985.475 755.427 984.998 755.831 984.369 756.13C983.744 756.429 982.985 756.579 982.091 756.579C981.258 756.579 980.536 756.444 979.926 756.175C979.32 755.906 978.843 755.531 978.494 755.05C978.15 754.569 977.955 754.011 977.909 753.374H979.364C979.402 753.814 979.549 754.177 979.807 754.465C980.068 754.749 980.398 754.961 980.795 755.102C981.197 755.238 981.629 755.306 982.091 755.306C982.629 755.306 983.112 755.219 983.54 755.045C983.968 754.867 984.307 754.62 984.557 754.306C984.807 753.988 984.932 753.617 984.932 753.192C984.932 752.806 984.824 752.492 984.608 752.249C984.392 752.007 984.108 751.81 983.756 751.658C983.403 751.507 983.023 751.374 982.614 751.261L981.182 750.852C980.273 750.59 979.553 750.217 979.023 749.732C978.492 749.247 978.227 748.613 978.227 747.829C978.227 747.177 978.403 746.609 978.756 746.124C979.112 745.636 979.589 745.257 980.188 744.988C980.79 744.715 981.462 744.579 982.205 744.579C982.955 744.579 983.621 744.713 984.205 744.982C984.788 745.247 985.25 745.611 985.591 746.073C985.936 746.535 986.117 747.06 986.136 747.647H984.773ZM1006.14 748.374H1004.73C1004.64 747.969 1004.5 747.613 1004.29 747.306C1004.08 746.999 1003.83 746.742 1003.54 746.533C1003.25 746.321 1002.92 746.162 1002.57 746.056C1002.21 745.95 1001.84 745.897 1001.45 745.897C1000.75 745.897 1000.11 746.075 999.539 746.431C998.971 746.787 998.518 747.312 998.181 748.005C997.848 748.698 997.681 749.549 997.681 750.556C997.681 751.564 997.848 752.414 998.181 753.107C998.518 753.8 998.971 754.325 999.539 754.681C1000.11 755.037 1000.75 755.215 1001.45 755.215C1001.84 755.215 1002.21 755.162 1002.57 755.056C1002.92 754.95 1003.25 754.793 1003.54 754.584C1003.83 754.372 1004.08 754.113 1004.29 753.806C1004.5 753.495 1004.64 753.139 1004.73 752.738H1006.14C1006.03 753.333 1005.84 753.865 1005.56 754.334C1005.28 754.804 1004.93 755.204 1004.51 755.533C1004.09 755.859 1003.63 756.107 1003.11 756.278C1002.59 756.448 1002.04 756.533 1001.45 756.533C1000.46 756.533 999.579 756.291 998.806 755.806C998.034 755.321 997.426 754.632 996.982 753.738C996.539 752.844 996.318 751.783 996.318 750.556C996.318 749.329 996.539 748.268 996.982 747.374C997.426 746.48 998.034 745.791 998.806 745.306C999.579 744.821 1000.46 744.579 1001.45 744.579C1002.04 744.579 1002.59 744.664 1003.11 744.834C1003.63 745.005 1004.09 745.255 1004.51 745.584C1004.93 745.91 1005.28 746.308 1005.56 746.778C1005.84 747.244 1006.03 747.776 1006.14 748.374ZM1016.57 756.374V744.738H1020.5C1021.41 744.738 1022.16 744.893 1022.74 745.204C1023.33 745.511 1023.76 745.933 1024.04 746.471C1024.32 747.009 1024.46 747.62 1024.46 748.306C1024.46 748.992 1024.32 749.6 1024.04 750.13C1023.76 750.66 1023.33 751.077 1022.75 751.38C1022.17 751.679 1021.43 751.829 1020.53 751.829H1017.35V750.556H1020.48C1021.1 750.556 1021.6 750.465 1021.98 750.283C1022.36 750.102 1022.64 749.844 1022.81 749.511C1022.99 749.174 1023.07 748.772 1023.07 748.306C1023.07 747.84 1022.99 747.433 1022.81 747.084C1022.64 746.736 1022.36 746.467 1021.98 746.278C1021.59 746.084 1021.09 745.988 1020.46 745.988H1017.98V756.374H1016.57ZM1022.05 751.147L1024.91 756.374H1023.28L1020.46 751.147H1022.05ZM1034.97 756.374V744.738H1041.99V745.988H1036.38V749.92H1041.63V751.17H1036.38V755.124H1042.08V756.374H1034.97ZM1052.69 756.374V744.738H1059.71V745.988H1054.1V749.92H1059.35V751.17H1054.1V755.124H1059.8V756.374H1052.69ZM1079.64 744.738V756.374H1078.28L1071.93 747.238H1071.82V756.374H1070.41V744.738H1071.78L1078.14 753.897H1078.25V744.738H1079.64Z" fill="white"/>
<g filter="url(#filter0_dddddd_1196_1024)">
<path d="M700 751.374C851 691.373 1142 674.873 1358 751.374" stroke="#E64C45" stroke-width="6" stroke-linecap="round"/>
</g>
<path d="M700 751.374C851 691.373 1142 674.873 1358 751.374" stroke="white" stroke-width="3" stroke-linecap="round"/>
<defs>
<filter id="filter0_dddddd_1196_1024" x="0.57196" y="0.572815" width="2056.86" height="1450.23" filterUnits="userSpaceOnUse" color-interpolation-filters="sRGB">
<feFlood flood-opacity="0" result="BackgroundImageFix"/>
<feColorMatrix in="SourceAlpha" type="matrix" values="0 0 0 0 0 0 0 0 0 0 0 0 0 0 0 0 0 0 127 0" result="hardAlpha"/>
<feOffset/>
<feGaussianBlur stdDeviation="8.2908"/>
<feColorMatrix type="matrix" values="0 0 0 0 0.996078 0 0 0 0 0.662745 0 0 0 0 0.662745 0 0 0 1 0"/>
<feBlend mode="normal" in2="BackgroundImageFix" result="effect1_dropShadow_1196_1024"/>
<feColorMatrix in="SourceAlpha" type="matrix" values="0 0 0 0 0 0 0 0 0 0 0 0 0 0 0 0 0 0 127 0" result="hardAlpha"/>
<feOffset/>
<feGaussianBlur stdDeviation="16.5816"/>
<feColorMatrix type="matrix" values="0 0 0 0 0.996078 0 0 0 0 0.662745 0 0 0 0 0.662745 0 0 0 1 0"/>
<feBlend mode="normal" in2="effect1_dropShadow_1196_1024" result="effect2_dropShadow_1196_1024"/>
<feColorMatrix in="SourceAlpha" type="matrix" values="0 0 0 0 0 0 0 0 0 0 0 0 0 0 0 0 0 0 127 0" result="hardAlpha"/>
<feOffset/>
<feGaussianBlur stdDeviation="58.0356"/>
<feColorMatrix type="matrix" values="0 0 0 0 0.996078 0 0 0 0 0.662745 0 0 0 0 0.662745 0 0 0 1 0"/>
<feBlend mode="normal" in2="effect2_dropShadow_1196_1024" result="effect3_dropShadow_1196_1024"/>
<feColorMatrix in="SourceAlpha" type="matrix" values="0 0 0 0 0 0 0 0 0 0 0 0 0 0 0 0 0 0 127 0" result="hardAlpha"/>
<feOffset/>
<feGaussianBlur stdDeviation="116.071"/>
<feColorMatrix type="matrix" values="0 0 0 0 0.996078 0 0 0 0 0.662745 0 0 0 0 0.662745 0 0 0 1 0"/>
<feBlend mode="normal" in2="effect3_dropShadow_1196_1024" result="effect4_dropShadow_1196_1024"/>
<feColorMatrix in="SourceAlpha" type="matrix" values="0 0 0 0 0 0 0 0 0 0 0 0 0 0 0 0 0 0 127 0" result="hardAlpha"/>
<feOffset/>
<feGaussianBlur stdDeviation="198.979"/>
<feColorMatrix type="matrix" values="0 0 0 0 0.996078 0 0 0 0 0.662745 0 0 0 0 0.662745 0 0 0 1 0"/>
<feBlend mode="normal" in2="effect4_dropShadow_1196_1024" result="effect5_dropShadow_1196_1024"/>
<feColorMatrix in="SourceAlpha" type="matrix" values="0 0 0 0 0 0 0 0 0 0 0 0 0 0 0 0 0 0 127 0" result="hardAlpha"/>
<feOffset/>
<feGaussianBlur stdDeviation="348.214"/>
<feColorMatrix type="matrix" values="0 0 0 0 0.996078 0 0 0 0 0.662745 0 0 0 0 0.662745 0 0 0 1 0"/>
<feBlend mode="normal" in2="effect5_dropShadow_1196_1024" result="effect6_dropShadow_1196_1024"/>
<feBlend mode="normal" in="SourceGraphic" in2="effect6_dropShadow_1196_1024" result="shape"/>
</filter>
</defs>
</svg>
